Patient4_TMGait_0pt4_03_left_42_EMG.mot
version=1
nRows=40
nColumns=33
inDegrees=no
endheader
time	1LAddLong	2LGlutMax	3LGlutMed	4LIliopsoas	5LSemiMemb	6LBicFemLong	7LRecFem	8LVastMed	9LVastLat	10LGasMed	11LTibAnt	12lTibPost	13LPeroneusLong	14LSol	15LExtDigLong	16LFlexDigLong	17RAddLong	18RGlutMax	19RGlutMed	20RIliopsoas	21RSemiMemb	22RBicFemLong	23RRecFem	24RVastMed	25RVastLat	26RGasMed	27RTibAnt	28RTibPost	29RPeroneusLong	30RSol	31RExtDigLong	32RFlexDigLong
55.64	0.002136	0.097961	0.01297	0.000763	0.008392	-0.036163	0.059357	0.009155	-0.033417	-0.03891	-0.042419	-0.009918	0.002441	-0.064697	0.54611	0.01709	-0.01709	0.13458	0.46402	0.028992	0.024719	0.009003	0.19241	0.082855	0.025482	-0.002441	0.14557	0.010223	-0.22064	0.11185	-0.000763	-0.011597
55.641	0.004425	0.075226	-0.016632	0.013275	0.00885	-0.035248	0.075684	0.010986	-0.03067	-0.036316	0.058746	-0.014191	0.010681	-0.074463	-0.26596	0.0177	-0.020447	0.20355	0.699	-0.032196	0.045471	-0.02594	0.11841	0.066376	-0.036316	-0.005493	0.12741	0.012207	-0.12299	0.046844	-0.00412	-0.000305
55.642	0.00351	0.089874	-0.004272	-0.006561	0.015259	-0.038605	0.054016	0.011139	-0.0383	-0.023651	0.028381	-0.015106	0.033875	-0.099335	-0.36224	0.022888	-0.028381	0.18555	0.57358	-0.019531	0.046844	-0.02655	-0.071259	0.037689	-0.010223	-0.000305	0.092621	0.010834	0.025024	0.009613	-0.000916	-0.011139
55.643	0.006104	0.078888	0.015869	0.004272	0.014954	-0.020752	0.07782	0.015869	-0.044708	-0.021973	-0.10773	-0.01236	0.079346	-0.12665	-0.28229	0.025482	0.000458	0.20828	0.2269	-0.024872	-0.005188	-0.023193	-0.15854	-0.052185	0.05722	-0.003662	0.14297	0.007629	0.069885	0.004578	-0.005951	-0.019684
55.644	0.005341	0.067902	-0.011292	0.011597	0.025024	0.012817	0.062866	0.017548	-0.043945	-0.012817	-0.20279	-0.00946	0.1152	-0.14221	-0.21378	0.009766	0.014954	0.20859	0.04715	-0.15045	-0.018921	0.002899	-0.10269	-0.17593	0.062561	-0.006256	0.081482	0.016022	0.2211	0.006714	-0.004272	-0.011444
55.645	0.002747	0.067139	-0.006714	-0.003052	0.023193	0.016479	0.06012	0.012665	-0.047607	-0.016632	-0.10757	-0.010071	0.057068	-0.096741	-0.017853	0.012054	0.00946	0.17868	0.40924	-0.16235	-0.02655	0.027771	-0.12756	-0.15076	0.002441	0.006866	-0.033112	0.014038	-0.017395	0.015411	-0.007324	-0.00061
55.646	0.006561	0.058289	0.000153	0.003967	0.019379	0.026398	0.063629	0.011292	-0.066223	0.000305	-0.03006	-0.001221	0.011292	-0.089111	0.049896	0.012512	0.007935	0.22247	0.72098	-0.080566	0.016632	0.039825	-0.014191	-0.029449	-0.059052	-0.00351	0.1207	0.010223	-0.36407	0.043793	-0.003662	-0.0177
55.647	0.005188	0.043335	0.000763	0.023499	0.016174	0.06424	0.05249	0.011597	-0.065918	-0.029602	-0.011749	-0.007629	0.005646	-0.084991	0.075226	0.008698	0.007782	0.23956	0.88699	0.015717	0.03479	0.02243	0.11276	-0.076447	-0.077362	-0.010986	0.24231	0.014954	-0.40955	0.032349	-0.002136	-0.005035
55.648	-0.000305	0.043182	0.014343	0.015564	0.021515	0.045319	0.061035	0.010071	-0.061951	-0.029602	-0.015411	-0.016022	-0.014801	-0.041962	0.093231	0.016479	0.016022	0.25665	1.0999	0.06012	0.005646	0.03952	0.088654	-0.082092	-0.039368	-0.010223	0.15533	0.005188	-0.13596	0.02182	0.00946	-0.001526
55.649	0.004578	-0.003662	-0.00412	0.012512	0.014038	0.04425	0.062866	0.015564	-0.067444	-0.030975	-0.028076	-0.00885	-0.003662	-0.062866	0.023804	0.013123	0.002289	0.20935	0.34119	0.1741	-0.059357	0.004272	0.09201	-0.13123	-0.004425	-0.012207	0.1294	0.012512	-0.09552	0.016632	-0.005798	-0.007782
55.65	-0.004578	0.049591	-0.008087	-0.004425	0.02243	0.029144	0.06012	0.009918	-0.057983	-0.026703	-0.068054	-0.007935	0.001526	-0.076599	0.29373	0	0.022278	0.19852	0.26398	0.10895	-0.051575	-0.069733	0.076294	-0.19333	-0.065613	-0.011139	0.16739	0.005646	0.22034	-0.003815	-0.003357	-0.003357
55.651	0.009918	0.008087	-0.014343	0.008087	0.014954	0.024719	0.042267	0.016327	-0.055542	-0.036926	-0.008698	-0.007935	0.006714	-0.11154	-0.11887	0.005188	0.021973	0.17578	0.15854	0.017548	-0.036011	-0.090485	0.21301	-0.061493	-0.024109	-0.005646	-0.023346	0.00885	0.072327	-0.054321	-0.003967	-0.002594
55.652	0.007782	0.005798	-0.016937	0.003967	0.021667	0.019836	0.037994	0.011292	-0.050049	-0.020447	-0.030212	-0.001831	0.018158	-0.08255	-0.040588	0.005188	0.009003	0.16296	-0.14206	0.037689	-0.025635	-0.078888	0.11704	0.038147	-0.012207	-0.005798	-0.13092	0.010986	-0.25833	-0.11169	-0.004272	-0.00351
55.653	0.00824	0.009613	-0.002899	0.001526	0.014191	0.014038	0.050812	0.015259	-0.041199	-0.032806	-0.010681	-0.007629	0.049744	-0.073242	-0.016174	0.005341	0.000153	0.17654	0.019684	0.07309	-0.037079	-0.005798	-0.16647	0.070343	-0.054169	0.001221	-0.21896	0.013123	-0.24155	-0.13611	-0.002899	0.002594
55.654	0.00061	0.001831	-0.006866	0.005646	0.018921	0.017548	0.039673	0.011597	-0.04364	-0.030975	0.027008	-0.006104	0.031433	-0.077515	-0.036316	-0.003967	0.005951	0.1831	0.017242	0.054779	-0.037231	0.055084	-0.11749	-0.004425	-0.021362	-0.000305	-0.42999	0.006256	-0.14725	-0.071716	0.003204	-0.003967
55.655	0.00473	-0.038605	-0.005493	-0.009766	0.021515	0.021362	0.041656	0.028992	-0.042114	-0.013123	0.10346	0.000763	-0.038757	-0.1062	0.036316	0.003357	0.005798	0.083923	-0.1741	0.18234	-0.028229	0.063324	-0.073853	0.056	-0.01709	0.001678	-0.36972	0.007172	-0.031433	0.02594	-0.003204	0.000305
55.656	0.005951	-0.036469	-0.031281	-0.005646	0.017242	0.030518	0.022125	0.016937	-0.030975	0.00061	0.064087	-0.00412	-0.039063	-0.090942	0.039368	0.002136	-0.010376	0.12528	0.19898	0.25238	-0.007172	0.054474	-0.026703	0.1004	-0.081024	0.001831	-0.07843	0.007629	0.11444	0.014343	-0.000153	-0.009613
55.657	0.010529	-0.032959	-0.027008	0.00351	0.003357	0.033417	0.035095	0.018768	-0.033417	-0.001373	0.038147	-0.002899	-0.006866	-0.083008	0.094147	-0.00412	-0.004425	0.13214	0.51575	0.19165	-0.009003	0.040436	-0.020905	0.11627	-0.10834	0.002594	-0.17151	0.011749	-0.47089	-0.023804	-0.005035	-0.015106
55.658	0.008087	-0.029907	-0.047302	0	-0.013428	0.017395	0.032043	0.00885	-0.028992	0.003357	0.036011	-0.001526	0.005646	-0.085754	0.074615	-0.003815	-0.004425	0.16907	0.40527	0.005341	-0.015564	0.014648	-0.12543	0.13443	0.008698	0.003357	-0.37018	0.002899	-0.46219	-0.065765	-0.001678	-0.001526
55.659	0.008087	-0.028992	-0.015411	-0.013123	-0.018005	0.023804	0.014954	0.008698	-0.014343	0.001526	0.042725	-0.004272	-0.014648	-0.074615	0.026245	0.00412	0.011444	0.11307	0.90637	-0.12573	-0.014038	-0.012207	-0.11856	0.14832	0.18951	0.006409	-0.28229	0.009308	0.86182	-0.14282	-0.002899	-0.014954
55.66	-0.003815	-0.049438	0.001984	-0.010986	-0.014496	0.041656	0.017853	0.008698	-0.002441	0.001526	0.031891	-0.001068	-0.014496	-0.087891	0.007172	-0.010529	-0.002594	0.16754	0.67123	-0.17319	-0.010223	-0.015411	-0.20279	0.24887	0.28519	0.002594	-0.2478	0.00061	0.71487	-0.06424	-0.001526	-0.009308
55.661	0.008698	-0.038452	-0.000153	0.013123	-0.01709	0.042877	0.041046	0.006256	0.01358	-0.006561	0.062408	0.002289	0.001984	-0.070343	0.003052	-0.003052	0.007477	0.18799	0.77164	-0.10819	-0.018768	-0.023193	-0.049133	0.067749	0.11643	-0.00351	0.047913	0.003815	-0.028839	0.1001	-0.005341	-0.001984
55.662	0.005951	-0.0354	0.002747	0.007477	-0.011749	0.031281	0.01358	0.00412	0.020294	-0.024261	0.075531	0.004272	-0.001526	-0.065613	0.05188	-0.007477	0.021057	0.086823	0.37064	-0.057373	-0.028381	-0.028534	-0.045013	0.010986	0.12955	-0.008392	0.14297	0.00473	0.15762	0.054932	-0.005493	-0.003357
55.663	0.006866	-0.018158	0.000916	0.018463	-0.016327	0.029449	0.018921	0.011292	0.025177	-0.029755	0.073395	0.002136	0.009003	-0.062256	0.036621	-0.006561	0.026245	0.070648	-0.13428	-0.048676	-0.030518	-0.035706	0.12207	-0.15732	0.087891	-0.001984	0.10681	0	-0.25559	-0.019989	-0.004883	-0.001678
55.664	0.013885	-0.025024	0.009003	0.011749	-0.014343	0.026855	0.002747	0.010223	0.026398	-0.019684	0.032654	0.004425	0.030975	-0.070496	0.021973	-0.016785	0.0177	0.14481	0.13077	-0.064545	-0.020447	-0.041046	0.11154	-0.1622	0.055389	-0.007019	0.095673	0.005188	-1.0953	0.054474	-0.001373	0.000763
55.665	0.00946	-0.015717	0.001831	0.006714	-0.007629	0.007324	0.001221	0.003967	0.023041	-0.007782	-0.00885	0.010681	0.033569	-0.06897	0.037689	-0.012207	0.026245	0.15778	0.19333	-0.029144	-0.026855	-0.032654	-0.039825	-0.13473	0.19562	-0.002289	0.14099	0.007172	-0.41122	0.13077	-0.002441	-0.006409
55.666	0.011597	0.024872	-0.015717	0.007935	-0.005798	0.044403	0.002747	0.0177	0.030518	0.010834	-0.072784	0.005798	0.001526	-0.078735	0.019684	-0.010529	0.021515	0.13733	-0.76172	0.037842	-0.027618	-0.017548	0.084229	-0.21515	0.3093	-0.007477	0.10666	-0.002136	0.72845	0.12116	-0.004578	-0.001526
55.667	0.000153	0.027008	-0.02655	0.008392	-0.012054	0.048065	0.003052	0.003967	0.03067	0.014496	-0.10986	0.006104	-0.015717	-0.084686	0.007324	-0.011444	0.022736	0.12253	-1.0577	0.073395	-0.025177	-0.009308	0.21683	-0.14069	0.22537	-0.001984	0.091095	-0.00412	0.38193	0.026855	-0.009003	0.007629
55.668	0.003967	0.025787	-0.018768	-0.000153	-0.007324	0.042725	0.016479	0.005798	0.031281	0.014648	0.035095	0.014648	-0.037537	-0.081024	0.032654	0.000916	0.019073	0.12833	0.54016	0.040588	-0.026703	-0.003967	0.15259	-0.09903	0.17944	-0.000916	0.049438	0.006409	0.22186	-0.061951	-0.001221	0.000916
55.669	0.007782	0.042267	0.011139	0.014038	-0.016022	0.051422	0.023193	0.002136	0.023804	-0.001373	0.093536	0.008087	-0.054016	-0.036011	0.36499	-0.045319	0.021057	0.12024	1.1851	-0.03952	-0.019073	0.018616	-0.071716	-0.069275	0.08316	0.00061	0.042877	0.005951	0.077057	-0.055084	-0.001678	-0.011444
55.67	0.011902	0.046997	-0.007324	0.000458	-0.016174	0.046539	0.008087	0.004272	0.025482	-0.018768	0.055084	0.010681	-0.041504	-0.005493	0.13138	-0.011597	-0.001526	0.082092	1.0829	-0.054321	-0.005493	0.038452	-0.12268	-0.020142	-0.02655	-0.001678	0.087585	0.000153	0.20508	0.029755	-0.001068	-0.010681
55.671	0.007324	0.048981	-0.013733	0.001221	-0.011292	0.037079	-0.001678	0.007782	0.02182	-0.046387	-0.092316	0.016785	0.022736	-0.014496	0.06012	-0.01236	-0.01709	0.040894	0.52612	-0.016479	0.006409	0.024414	-0.3212	0.19974	0.11292	-0.010529	0.21668	-0.000763	0.054169	0.075073	-0.004578	-0.012207
55.672	0.006714	0.079803	-0.02655	0.004883	-0.014343	0.046692	0.001221	-0.000458	0.017548	-0.069885	0.032654	0.014496	0.091095	0.023804	-0.17731	-0.002747	-0.021515	0.069885	0.59952	0.031433	0.003967	0.022888	-0.54596	0.23682	0.078125	-0.00885	0.41275	0.000153	-0.12817	0.053558	-0.005188	-0.009155
55.673	0.008087	0.066681	-0.029602	-0.007935	-0.003662	0.053711	-0.004425	0.001526	0.013733	-0.049133	-0.006866	0.010834	0.072327	-0.010223	-0.20218	-0.011597	-0.006256	0.11643	0.45242	-0.039825	-0.015259	-0.022888	-0.24231	0.029755	-0.16373	-0.004425	0.35965	0.002136	-0.2504	0.023804	0.000153	-0.01358
55.674	0.00824	0.065613	-0.025787	-0.00473	0.006866	0.06546	-0.006561	0.001221	0.009613	-0.034943	0.071869	0.011749	0.018463	-0.032806	-0.1297	-0.01297	0.018921	0.086517	-0.072784	-0.061493	-0.030212	-0.027771	0.11826	-0.074921	-0.26154	-0.001678	0.29266	0.001068	-0.36087	-0.097656	-0.00061	-0.00473
55.675	0.014648	0.079956	-0.018463	0.011749	-0.009155	0.077057	-0.013885	0.004425	0.016479	-0.010834	0.10056	0.005646	0.005493	-0.068665	-0.15213	-0.01236	0.020599	0.067139	-0.34393	-0.02243	-0.029449	-0.012054	0.16281	-0.096436	0.006561	0.001831	-0.29968	0.001831	-0.065155	-0.16068	-0.00885	-0.011597
55.676	0.004425	0.093842	-0.015717	0.023193	-0.033875	0.06424	-0.009003	0.003052	0.022736	-0.000458	-0.007782	0.014648	0.02121	-0.11795	-0.19241	-0.021667	0.006866	0.061798	-0.4097	-0.023651	-0.014496	0.000763	-0.005798	-0.12466	0.19043	0.005646	-0.63904	0.005341	0.33569	-0.10544	-0.005646	-0.005188
55.677	0.019684	0.10574	-0.015259	0.005951	-0.036316	0.030518	-0.003815	0.001373	0.016785	-0.021057	-0.099945	0.01236	0.06485	-0.16968	-0.25375	-0.005798	0.007629	0.000916	0.48492	-0.06897	-0.011597	0.010529	0.03418	-0.12985	0.29068	0.006104	-0.38711	0.004425	0.3389	-0.051727	-0.000153	-0.006714
55.678	0.010834	0.13046	-0.014191	-0.001221	-0.032043	-0.002747	-0.007782	0.010071	0.023346	-0.01236	-0.053406	0.010529	0.063782	-0.21042	-0.050964	-0.00824	0.005798	0.050507	1.0063	0.061188	-0.018005	0.031586	-0.05249	-0.11536	0.13321	-0.00061	-0.20294	-0.000153	-0.046692	-0.10178	-0.003052	-0.004425
55.679	0.008545	0.11383	-0.013275	-0.006714	-0.020142	0.008392	-0.001984	0.007782	0.028534	-0.013123	-0.032959	0.010986	0.03952	-0.22278	0.058899	-0.006866	-0.007935	0.029297	0.40848	0.21957	-0.018921	0.02594	-0.18265	-0.046844	-0.010986	-0.008392	-0.11231	0.000763	-0.33661	-0.12894	-0.001221	-0.002136
